<?xml version="1.0" standalone="no"?>
<!DOCTYPE svg PUBLIC "-//W3C//DTD SVG 20010904//EN"
 "http://www.w3.org/TR/2001/REC-SVG-20010904/DTD/svg10.dtd">
<svg version="1.0" xmlns="http://www.w3.org/2000/svg"
 width="3508.000000pt" height="2480.000000pt" viewBox="0 0 3508.000000 2480.000000"
 preserveAspectRatio="xMidYMid meet">

<g transform="translate(0.000000,2480.000000) scale(0.100000,-0.100000)"
fill="#000000" stroke="none">
<path d="M20765 20520 c-3 -5 -38 -10 -77 -10 -87 0 -147 -26 -178 -74 -20
-34 -27 -90 -12 -100 5 -3 10 -39 10 -81 1 -42 6 -84 11 -93 5 -9 12 -36 16
-59 4 -25 17 -52 31 -65 32 -31 30 -45 -10 -65 -21 -10 -32 -21 -29 -29 7 -19
-24 -29 -42 -14 -11 9 -20 5 -44 -22 -33 -35 -114 -193 -125 -243 -4 -16 -25
-59 -46 -95 -47 -80 -57 -126 -37 -172 8 -18 18 -45 21 -60 7 -33 48 -48 132
-48 61 0 64 -1 64 -24 0 -12 3 -50 6 -82 l6 -59 -35 -17 -35 -17 15 -78 c7
-43 24 -109 35 -148 12 -38 22 -87 22 -107 0 -24 5 -38 14 -40 12 -2 14 -23
13 -100 -1 -56 2 -98 7 -98 5 0 12 -29 14 -64 3 -46 10 -71 23 -86 17 -18 20
-37 20 -109 0 -47 6 -118 13 -157 9 -51 10 -78 2 -98 -17 -45 -12 -65 45 -195
58 -130 65 -172 40 -220 -19 -38 -71 -81 -107 -88 -34 -7 -54 -44 -38 -73 7
-12 25 -20 57 -23 86 -9 133 -8 153 3 11 6 53 12 95 14 75 3 105 16 105 44 0
8 -12 45 -27 81 -19 47 -27 86 -29 136 -1 39 -5 87 -9 108 -6 28 -3 42 9 56
18 20 21 53 6 81 -13 24 -31 185 -34 295 -2 68 0 82 16 93 22 16 23 50 3 76
-20 26 -19 109 1 152 9 19 20 34 24 34 13 0 21 -33 10 -44 -16 -16 -12 -62 11
-105 14 -28 20 -55 18 -90 -2 -30 4 -63 13 -83 9 -18 39 -105 67 -193 l52
-160 3 -201 c1 -110 6 -205 9 -211 9 -15 68 -24 105 -17 22 4 39 18 54 42 21
34 21 38 9 183 l-12 148 26 60 c13 33 22 67 19 75 -3 8 2 28 12 44 16 28 16
33 -6 113 -12 46 -26 120 -31 164 -13 117 -19 314 -9 320 4 3 32 -34 62 -82
55 -91 87 -114 106 -76 7 14 -8 47 -70 153 l-79 134 56 115 57 116 -26 20
c-21 17 -24 26 -19 61 4 30 0 50 -13 73 -15 26 -16 34 -5 55 10 18 11 32 3 53
-7 22 -6 36 6 58 12 24 14 57 8 194 -6 151 -9 174 -37 251 -30 82 -35 89 -137
188 -59 56 -115 102 -125 102 -31 0 -131 32 -139 44 -17 26 -8 68 22 96 26 24
30 35 30 78 0 29 -11 81 -25 120 -14 38 -25 77 -25 86 0 28 -46 66 -79 66 -16
0 -33 -4 -36 -10z"/>
<path d="M14313 16236 c-173 -56 -275 -245 -230 -422 9 -33 19 -88 23 -123 7
-62 8 -64 48 -82 23 -10 53 -19 67 -19 27 0 39 -19 39 -66 0 -18 -18 -25 -177
-62 -98 -23 -184 -42 -191 -42 -8 0 -33 16 -56 35 l-43 35 -86 -102 -85 -102
61 -44 c34 -25 64 -46 66 -48 2 -2 -14 -30 -36 -61 -43 -61 -99 -169 -153
-293 -18 -41 -53 -110 -77 -153 -42 -75 -44 -81 -37 -135 12 -104 52 -168 127
-202 l38 -17 112 47 c62 26 113 47 114 46 1 -1 -5 -53 -12 -115 -10 -76 -11
-120 -5 -132 9 -15 5 -20 -27 -28 -21 -6 -43 -11 -49 -11 -14 0 -44 -33 -44
-49 0 -11 179 -520 186 -530 2 -2 23 -6 48 -8 l45 -5 -6 -97 c-5 -82 -1 -118
26 -253 17 -86 36 -214 42 -285 9 -113 15 -139 49 -218 l38 -90 -5 -121 c-5
-97 -3 -130 11 -170 13 -39 15 -69 10 -135 -8 -99 3 -143 45 -185 24 -23 27
-33 20 -52 -5 -13 -9 -48 -9 -79 0 -53 1 -56 60 -117 55 -57 60 -67 60 -107 0
-48 27 -116 53 -138 10 -7 17 -28 17 -45 0 -25 -11 -43 -55 -86 -38 -38 -55
-62 -55 -80 0 -51 7 -53 151 -48 74 3 141 8 149 12 12 5 15 -2 17 -30 1 -22
11 -46 24 -60 20 -21 32 -24 95 -24 94 0 112 8 163 69 42 50 42 51 51 158 6
77 16 128 36 178 46 117 60 386 28 509 -9 34 -16 87 -15 118 1 31 -8 94 -19
139 -19 74 -20 83 -6 98 26 28 19 78 -20 147 -35 62 -36 66 -29 138 6 65 10
75 32 85 15 7 35 35 56 79 31 66 31 69 32 222 0 85 3 160 7 165 3 6 43 152 88
324 l82 314 -27 64 c-27 63 -27 97 -1 91 25 -6 396 -350 396 -368 0 -9 84 -97
186 -195 l186 -179 38 41 39 40 -175 174 c-96 96 -188 180 -204 187 l-31 12
27 45 c14 25 23 45 19 45 -3 0 -29 -10 -56 -21 -27 -12 -51 -20 -52 -18 -1 2
-38 41 -81 86 -76 80 -78 82 -62 105 9 12 16 25 16 28 0 4 -27 28 -60 56 -33
27 -60 54 -60 59 0 6 49 57 108 115 89 86 115 118 146 180 20 41 39 98 42 126
6 48 3 59 -51 165 -92 184 -257 421 -360 519 -21 19 -48 51 -60 71 -21 32 -39
43 -135 80 -84 33 -114 50 -121 67 -5 12 -15 22 -23 22 -7 0 -20 9 -27 21 -11
16 -32 23 -92 31 l-78 11 3 31 c2 19 11 34 24 41 12 6 40 27 62 47 33 30 39
40 34 64 -3 16 -13 40 -23 54 -10 14 -20 40 -24 58 -6 28 -4 32 15 32 21 0 21
3 14 68 -3 37 -10 68 -15 70 -4 2 -17 22 -28 46 -55 112 -165 186 -288 192
-40 2 -85 -2 -110 -10z"/>
<path d="M2265 14911 c-41 -18 -115 -104 -130 -150 -4 -14 -1 -39 9 -65 15
-38 15 -46 1 -79 -8 -20 -15 -41 -15 -46 0 -5 21 -32 46 -60 l46 -51 -19 -32
c-13 -24 -55 -55 -148 -109 -72 -43 -140 -85 -152 -95 -14 -12 -57 -114 -123
-288 l-101 -270 45 -97 45 -97 -20 -71 c-10 -40 -17 -82 -13 -95 5 -19 -25
-68 -150 -251 -86 -125 -156 -231 -156 -235 0 -9 40 -40 51 -40 4 0 37 57 74
128 142 270 256 442 295 442 27 0 34 -35 26 -126 l-7 -74 33 -20 c18 -11 40
-20 49 -20 14 0 17 -35 22 -302 6 -254 11 -333 34 -490 15 -104 30 -188 33
-188 11 0 85 73 82 81 -1 5 3 9 9 9 16 0 39 26 39 45 0 8 7 18 15 21 10 4 13
13 10 25 -5 13 -2 19 7 17 8 -2 14 8 16 25 2 15 8 27 13 27 5 0 9 18 9 39 0
22 5 43 10 46 6 3 10 44 10 90 0 46 -4 87 -10 90 -5 3 -10 26 -10 51 l0 44 70
0 c40 0 70 -4 70 -10 0 -6 35 -10 86 -10 51 0 83 -4 79 -9 -6 -11 46 -23 83
-19 20 2 22 7 22 70 l0 68 35 0 c19 0 45 5 58 11 35 16 70 83 69 133 -1 22 -4
127 -7 231 -6 178 -5 204 25 410 35 244 35 302 -2 460 -19 83 -25 93 -74 145
-45 48 -69 62 -169 104 -65 27 -119 56 -122 63 -3 8 0 26 7 41 7 15 12 37 11
49 -2 15 7 26 28 38 17 8 31 17 31 19 0 3 7 39 15 81 20 107 8 157 -58 231
-36 42 -118 84 -162 84 -16 0 -48 -9 -70 -19z"/>
</g>
</svg>
